<svg xmlns="http://www.w3.org/2000/svg" width="65.11" height="65.11" viewBox="0 0 65.11 65.11">
  <g id="neuf-heures-sur-horloge-circulaire" transform="translate(0)">
    <g id="_x37__16_" transform="translate(0)">
      <g id="Groupe_62" data-name="Groupe 62">
        <path id="Tracé_3" data-name="Tracé 3" d="M30.52,56.971H34.59V52.9H30.52ZM32.555,8.139a2.035,2.035,0,0,0-2.035,2.035v20.4H14.243a2.035,2.035,0,1,0,0,4.069H32.555A2.035,2.035,0,0,0,34.59,32.6V10.173A2.035,2.035,0,0,0,32.555,8.139ZM13.7,46.456l2.816,2.822,2.816-2.822-2.816-2.822Zm6.023-29.521-2.879-2.877-2.877,2.877,2.877,2.877Zm25.2-.1,2.816,2.822,2.816-2.822-2.816-2.822Zm-.6,29.513L47.2,49.223l2.877-2.877L47.2,43.469ZM52.9,30.52V34.59h4.069V30.52ZM32.555,0A32.555,32.555,0,1,0,65.11,32.555,32.555,32.555,0,0,0,32.555,0Zm0,61.041A28.486,28.486,0,1,1,61.041,32.555,28.486,28.486,0,0,1,32.555,61.041Z" fill="#f24e59"/>
      </g>
    </g>
  </g>
</svg>
