<svg xmlns="http://www.w3.org/2000/svg" width="40.874" height="32.719" viewBox="0 0 40.874 32.719">
  <g id="oeil" transform="translate(-0.024)">
    <path id="Tracé_43" data-name="Tracé 43" d="M84.277,128.7a15.729,15.729,0,0,1,8.21,2.439,34.09,34.09,0,0,1,9.272,8.692,42.776,42.776,0,0,1,2.78,4.066,2.007,2.007,0,0,1,.051,2.213,39.939,39.939,0,0,1-10.481,11.807,18.013,18.013,0,0,1-7.065,3.243,14.047,14.047,0,0,1-9.188-1.39,27.267,27.267,0,0,1-7.56-5.791,46.136,46.136,0,0,1-5.855-7.612,2.254,2.254,0,0,1-.013-2.593A40.478,40.478,0,0,1,74.652,132.3a18.109,18.109,0,0,1,7.464-3.384A15.763,15.763,0,0,1,84.277,128.7Zm.2,4.1h-.624l-.238.032a12.779,12.779,0,0,0-6.009,2.406,34.909,34.909,0,0,0-9,9.561c-.161.232-.077.367.045.547a43.108,43.108,0,0,0,3.822,4.961,24.161,24.161,0,0,0,7.045,5.733,10.306,10.306,0,0,0,5.907,1.216,13.037,13.037,0,0,0,5.99-2.464,35.17,35.17,0,0,0,8.886-9.49.373.373,0,0,0-.019-.5q-.952-1.441-2.014-2.8a30.792,30.792,0,0,0-7.193-6.962A12.089,12.089,0,0,0,84.477,132.8Z" transform="translate(-64 -128.7)"/>
    <path id="Tracé_44" data-name="Tracé 44" d="M262.689,256a8.152,8.152,0,1,1-5.78,2.365A8.171,8.171,0,0,1,262.689,256Z" transform="translate(-242.219 -247.808)"/>
  </g>
</svg>
