<svg xmlns="http://www.w3.org/2000/svg" width="65.114" height="65.11" viewBox="0 0 65.114 65.11">
  <g id="info" transform="translate(0 -0.008)">
    <g id="Groupe_65" data-name="Groupe 65" transform="translate(0 0.008)">
      <g id="Groupe_64" data-name="Groupe 64" transform="translate(0 0)">
        <path id="Tracé_6" data-name="Tracé 6" d="M32.557.008A32.555,32.555,0,1,0,65.114,32.563,32.593,32.593,0,0,0,32.557.008Zm0,59.191A26.636,26.636,0,1,1,59.194,32.563,26.667,26.667,0,0,1,32.557,59.2Z" transform="translate(0 -0.008)" fill="#f24e59"/>
        <path id="Tracé_7" data-name="Tracé 7" d="M152.96,130.008a2.96,2.96,0,0,0-2.96,2.96V152.7a2.96,2.96,0,1,0,5.919,0V132.968A2.96,2.96,0,0,0,152.96,130.008Z" transform="translate(-120.403 -104.357)" fill="#f24e59"/>
        <path id="Tracé_8" data-name="Tracé 8" d="M152.96,70.011a2.958,2.958,0,1,0,2.093.866A2.985,2.985,0,0,0,152.96,70.011Z" transform="translate(-120.403 -56.198)" fill="#f24e59"/>
      </g>
    </g>
  </g>
</svg>
