<svg xmlns="http://www.w3.org/2000/svg" width="65.11" height="65.11" viewBox="0 0 65.11 65.11">
  <g id="parametres" transform="translate(0)">
    <path id="Tracé_4" data-name="Tracé 4" d="M34.6,65.11H30.512a6,6,0,0,1-5.994-5.994V57.734a26.286,26.286,0,0,1-4.082-1.694l-.98.98a5.994,5.994,0,0,1-8.478,0L8.091,54.13a5.994,5.994,0,0,1,0-8.478l.979-.979a26.287,26.287,0,0,1-1.694-4.082H5.994A6,6,0,0,1,0,34.6V30.512a6,6,0,0,1,5.994-5.994H7.376a26.292,26.292,0,0,1,1.694-4.082l-.98-.98a5.994,5.994,0,0,1,0-8.478L10.98,8.091a5.993,5.993,0,0,1,8.478,0l.979.979a26.31,26.31,0,0,1,4.082-1.694V5.994A6,6,0,0,1,30.512,0H34.6a6,6,0,0,1,5.994,5.994V7.376a26.285,26.285,0,0,1,4.082,1.694l.98-.98a5.994,5.994,0,0,1,8.478,0l2.888,2.888a5.994,5.994,0,0,1,0,8.478l-.979.979a26.287,26.287,0,0,1,1.694,4.082h1.382a6,6,0,0,1,5.994,5.994V34.6a6,6,0,0,1-5.994,5.994H57.734a26.293,26.293,0,0,1-1.694,4.082l.98.98a5.994,5.994,0,0,1,0,8.478L54.13,57.019a5.993,5.993,0,0,1-8.478,0l-.979-.979a26.31,26.31,0,0,1-4.082,1.694v1.382A6,6,0,0,1,34.6,65.11ZM21.074,52.033A22.485,22.485,0,0,0,26.9,54.453,1.907,1.907,0,0,1,28.333,56.3v2.817a2.181,2.181,0,0,0,2.179,2.179H34.6a2.181,2.181,0,0,0,2.179-2.179V56.3a1.907,1.907,0,0,1,1.431-1.847,22.485,22.485,0,0,0,5.828-2.419,1.907,1.907,0,0,1,2.32.293l2,2a2.178,2.178,0,0,0,3.081,0l2.89-2.89a2.178,2.178,0,0,0,0-3.081l-2-2a1.908,1.908,0,0,1-.293-2.32,22.481,22.481,0,0,0,2.419-5.828A1.908,1.908,0,0,1,56.3,36.777h2.816A2.181,2.181,0,0,0,61.3,34.6V30.512a2.181,2.181,0,0,0-2.179-2.179H56.3A1.908,1.908,0,0,1,54.453,26.9a22.486,22.486,0,0,0-2.419-5.828,1.908,1.908,0,0,1,.293-2.32l2-2a2.178,2.178,0,0,0,0-3.081l-2.89-2.89a2.178,2.178,0,0,0-3.081,0l-2,2a1.907,1.907,0,0,1-2.32.293,22.485,22.485,0,0,0-5.828-2.419,1.907,1.907,0,0,1-1.431-1.847V5.994A2.181,2.181,0,0,0,34.6,3.815H30.512a2.181,2.181,0,0,0-2.179,2.179V8.81A1.907,1.907,0,0,1,26.9,10.657a22.485,22.485,0,0,0-5.828,2.419,1.908,1.908,0,0,1-2.32-.293l-2-2a2.178,2.178,0,0,0-3.081,0l-2.89,2.89a2.178,2.178,0,0,0,0,3.081l2,2a1.908,1.908,0,0,1,.293,2.32A22.481,22.481,0,0,0,10.658,26.9a1.908,1.908,0,0,1-1.847,1.431H5.994a2.182,2.182,0,0,0-2.179,2.179V34.6a2.181,2.181,0,0,0,2.179,2.179H8.81a1.908,1.908,0,0,1,1.847,1.431,22.485,22.485,0,0,0,2.419,5.828,1.908,1.908,0,0,1-.293,2.32l-2,2a2.178,2.178,0,0,0,0,3.081l2.89,2.89a2.178,2.178,0,0,0,3.081,0l2-2a1.917,1.917,0,0,1,2.32-.293Z" transform="translate(0 0)" fill="#f24e59"/>
    <path id="Tracé_5" data-name="Tracé 5" d="M158.767,172.933a14.166,14.166,0,1,1,14.167-14.167A14.183,14.183,0,0,1,158.767,172.933Zm0-24.518a10.351,10.351,0,1,0,10.352,10.351A10.363,10.363,0,0,0,158.767,148.415Z" transform="translate(-126.211 -126.212)" fill="#f24e59"/>
  </g>
</svg>
