<svg xmlns="http://www.w3.org/2000/svg" width="52.615" height="52.615" viewBox="0 0 52.615 52.615">
  <g id="parametres" transform="translate(0)">
    <path id="Tracé_4" data-name="Tracé 4" d="M27.959,52.615h-3.3a4.849,4.849,0,0,1-4.844-4.844V46.654a21.242,21.242,0,0,1-3.3-1.369l-.792.792a4.844,4.844,0,0,1-6.851,0L6.538,43.742a4.843,4.843,0,0,1,0-6.851L7.33,36.1a21.243,21.243,0,0,1-1.369-3.3H4.844A4.849,4.849,0,0,1,0,27.958v-3.3a4.849,4.849,0,0,1,4.844-4.844H5.961a21.247,21.247,0,0,1,1.369-3.3l-.792-.792a4.844,4.844,0,0,1,0-6.851L8.873,6.538a4.843,4.843,0,0,1,6.851,0l.791.791a21.261,21.261,0,0,1,3.3-1.369V4.844A4.849,4.849,0,0,1,24.657,0h3.3A4.849,4.849,0,0,1,32.8,4.844V5.961A21.241,21.241,0,0,1,36.1,7.33l.792-.792a4.844,4.844,0,0,1,6.851,0l2.334,2.334a4.843,4.843,0,0,1,0,6.851l-.791.791a21.242,21.242,0,0,1,1.369,3.3h1.117a4.849,4.849,0,0,1,4.844,4.844v3.3A4.849,4.849,0,0,1,47.771,32.8H46.654a21.247,21.247,0,0,1-1.369,3.3l.792.792a4.844,4.844,0,0,1,0,6.851l-2.334,2.334a4.843,4.843,0,0,1-6.851,0l-.791-.791a21.261,21.261,0,0,1-3.3,1.369v1.117A4.849,4.849,0,0,1,27.959,52.615ZM17.03,42.048A18.17,18.17,0,0,0,21.739,44,1.541,1.541,0,0,1,22.9,45.5v2.276a1.763,1.763,0,0,0,1.761,1.761h3.3a1.763,1.763,0,0,0,1.761-1.761V45.5A1.541,1.541,0,0,1,30.876,44a18.17,18.17,0,0,0,4.71-1.955,1.541,1.541,0,0,1,1.875.237L39.072,43.9a1.76,1.76,0,0,0,2.489,0L43.9,41.562a1.76,1.76,0,0,0,0-2.489L42.285,37.46a1.541,1.541,0,0,1-.237-1.875A18.166,18.166,0,0,0,44,30.875,1.541,1.541,0,0,1,45.5,29.719h2.276a1.763,1.763,0,0,0,1.761-1.761v-3.3A1.763,1.763,0,0,0,47.771,22.9H45.5A1.541,1.541,0,0,1,44,21.74a18.17,18.17,0,0,0-1.955-4.71,1.542,1.542,0,0,1,.237-1.875L43.9,13.543a1.76,1.76,0,0,0,0-2.489L41.562,8.718a1.76,1.76,0,0,0-2.489,0L37.46,10.33a1.541,1.541,0,0,1-1.875.237,18.17,18.17,0,0,0-4.71-1.955A1.541,1.541,0,0,1,29.719,7.12V4.844a1.763,1.763,0,0,0-1.761-1.761h-3.3A1.763,1.763,0,0,0,22.9,4.844V7.12A1.541,1.541,0,0,1,21.74,8.612a18.17,18.17,0,0,0-4.71,1.955,1.542,1.542,0,0,1-1.875-.237L13.543,8.718a1.76,1.76,0,0,0-2.489,0L8.718,11.053a1.76,1.76,0,0,0,0,2.489l1.613,1.613a1.542,1.542,0,0,1,.237,1.875,18.166,18.166,0,0,0-1.955,4.71A1.541,1.541,0,0,1,7.12,22.9H4.844a1.763,1.763,0,0,0-1.761,1.761v3.3a1.763,1.763,0,0,0,1.761,1.761H7.12a1.541,1.541,0,0,1,1.493,1.156,18.17,18.17,0,0,0,1.955,4.71,1.542,1.542,0,0,1-.237,1.875L8.718,39.072a1.76,1.76,0,0,0,0,2.489L11.053,43.9a1.76,1.76,0,0,0,2.489,0l1.613-1.613a1.549,1.549,0,0,1,1.875-.237Z" transform="translate(0 0)" fill="#655f00"/>
    <path id="Tracé_5" data-name="Tracé 5" d="M156.048,167.5A11.448,11.448,0,1,1,167.5,156.048,11.461,11.461,0,0,1,156.048,167.5Zm0-19.813a8.365,8.365,0,1,0,8.365,8.365A8.374,8.374,0,0,0,156.048,147.683Z" transform="translate(-129.74 -129.74)" fill="#655f00"/>
  </g>
</svg>
